# xmcd
#
# Track frame offsets: 
#        150
#        13795
#        25342
#        38310
#        52577
#        69792
#        89017
#        99440
#
# Disc length: 1423 seconds
#
# Revision: 2
# Processed by: cddbd v1.4b42PL1 Copyright (c) Steve Scherf et al.
# Submitted via: ExactAudioCopy v0.90a11
#
DISCID=50058d08
DTITLE=Various Artist - The Outlaws
DYEAR=1900
DGENRE=
TTITLE0=Waylon Jennings and Willie Nelson - Good Hearted Woman
TTITLE1=Jessi Colter - You Mean To Say
TTITLE2=Waylon Jennings - My Heroes Have Always Been Cowboys
TTITLE3=Willie Nelson - Yesterday's Wine
TTITLE4=Willie Nelson - Me And Paul
TTITLE5=Tompall Glaser and His Outlaw Band - T For Texas
TTITLE6=Jessi Colter - I'm Looking For Blue Eyes
TTITLE7=Waylon Jennings and Willie Nelson - Heaven Or Hell
EXTD=
EXTT0=Waylon and Willie
EXTT1=Jessi Colter
EXTT2=Waylon Jennings
EXTT3=Willie Nelson
EXTT4=Willie Nelson
EXTT5=Tompall Glaser And His Outlaw Band
EXTT6=Jessi Colter
EXTT7=Waylon and Willie
PLAYORDER=
